# xmcd CD database file
#
# Track frame offsets:
#	150
#	19100
#	41912
#	58017
#	81144
#	102288
#	126380
#	146557
#	168009
#	188127
#	209062
#	226876
#	247557
#	267037
#	287359
#	305854
#
# Disc length: 4316 seconds
#
# Revision: 0
# Processed by: cddbd v1.5.1PL2 Copyright (c) Steve Scherf et al.
# Submitted via: CDex 1.51
#
DISCID=dd10da10
DTITLE=Larsen/Feiten Band - Larsen/Feiten Band and Full Moon
DYEAR=2005
DGENRE=Jazz
TTITLE0=Who'll be the Fool tonight
TTITLE1=Danger Zone
TTITLE2=Further Notice
TTITLE3=Over
TTITLE4=She's not in Love
TTITLE5=Morning Star
TTITLE6=Make it
TTITLE7=Aztec Legend
TTITLE8=Phantom of the Footlights
TTITLE9=The Visitor
TTITLE10=Twilight Moon
TTITLE11=Sierra
TTITLE12=Brown Eyes
TTITLE13=Hero's welcome
TTITLE14=Standing in Line
TTITLE15=Little Cowboys
EXTD=YEAR: 2005
EXTT0=
EXTT1=
EXTT2=
EXTT3=
EXTT4=
EXTT5=
EXTT6=
EXTT7=
EXTT8=
EXTT9=
EXTT10=
EXTT11=
EXTT12=
EXTT13=
EXTT14=
EXTT15=
PLAYORDER=
